<?xml version="1.0" encoding="UTF-8"?>
<svg version="1.1" xmlns="http://www.w3.org/2000/svg" width="300" height="92">
<path d="M0 0 C99 0 198 0 300 0 C300 30.36 300 60.72 300 92 C201 92 102 92 0 92 C0 61.64 0 31.28 0 0 Z " fill="#FCFDFC" transform="translate(0,0)"/>
<path d="M0 0 C0 0.66 0 1.32 0 2 C0.78375 2.268125 1.5675 2.53625 2.375 2.8125 C5 4 5 4 7 7 C8.95385067 7.78988145 8.95385067 7.78988145 11.125 8.1875 C12.40375 8.455625 13.6825 8.72375 15 9 C14.57049387 14.47620321 13.36212 16.79735 10 21 C9.19777849 24.689748 9.19777849 24.689748 9 28 C2.46381866 28.25632084 2.46381866 28.25632084 -0.375 26.6875 C-3.7783396 25.79614915 -4.72367498 26.64181584 -7.75 28.3125 C-10.53678369 29.94664088 -10.53678369 29.94664088 -13 32 C-11.948125 32.20625 -10.89625 32.4125 -9.8125 32.625 C-5.24309934 33.95580304 -3.45538019 35.93327656 -1 40 C-1 44.78148801 -2.06502436 48.2264599 -5 52 C-7.61308378 54.04809269 -9.57682111 54.90596025 -12.8125 55.625 C-17.6761731 54.67133861 -20.72952528 51.62403955 -24 48 C-27.38875208 42.62526386 -26.41025662 36.00173243 -26.4375 29.875 C-26.47037109 28.59367187 -26.50324219 27.31234375 -26.53710938 25.9921875 C-26.5824314 17.94958851 -25.78880477 11.64192486 -21 5 C-14.8769852 -1.01452469 -8.20146868 -0.56260075 0 0 Z " fill="#272325" transform="translate(50,21)"/>
<path d="M0 0 C2.06132142 -0.10864945 4.12431321 -0.18588321 6.1875 -0.25 C7.33605469 -0.29640625 8.48460937 -0.3428125 9.66796875 -0.390625 C13.63979862 0.0750057 15.18771485 1.22370387 18 4 C19.44207941 6.88415883 19.09394887 9.41721528 19.0625 12.625 C19.05347656 13.81351563 19.04445312 15.00203125 19.03515625 16.2265625 C19.02355469 17.14179687 19.01195312 18.05703125 19 19 C16.75106046 19.10823773 14.50062425 19.18569645 12.25 19.25 C10.37054688 19.31960937 10.37054688 19.31960937 8.453125 19.390625 C5 19 5 19 2.609375 17.109375 C-0.28806928 13.31175386 -0.16674286 10.75217155 0 6 C0.33 5.01 0.66 4.02 1 3 C0.67 2.01 0.34 1.02 0 0 Z " fill="#5CBC51" transform="translate(152,30)"/>
<path d="M0 0 C9.76991826 -0.62583106 9.76991826 -0.62583106 14.5625 1.8125 C17.47909849 4.42996018 18.9292775 5.94340589 19.1953125 9.91796875 C19.17210937 10.99691406 19.14890625 12.07585938 19.125 13.1875 C19.10695312 14.27417969 19.08890625 15.36085938 19.0703125 16.48046875 C19.04710937 17.31191406 19.02390625 18.14335938 19 19 C6.64011051 19.90315837 6.64011051 19.90315837 2.95703125 17.875 C0.71164743 15.34647393 0.01498051 13.12733434 -0.375 9.8125 C0 7 0 7 1 4 C0.61067144 1.85744207 0.61067144 1.85744207 0 0 Z " fill="#F68628" transform="translate(225,27)"/>
<path d="M0 0 C4.78392275 0.83928469 6.33163907 2.00013164 9.5625 5.625 C10.43213602 9.71228927 9.74959546 11.29446469 7.6875 14.9375 C5.5625 17.625 5.5625 17.625 3.5625 18.625 C-0.48892119 18.88360135 -1.98087669 18.92941554 -5.4375 16.625 C-5.4375 18.275 -5.4375 19.925 -5.4375 21.625 C-6.4275 21.955 -7.4175 22.285 -8.4375 22.625 C-8.57298815 19.89416098 -8.67179855 17.17008193 -8.75 14.4375 C-8.79189453 13.66857422 -8.83378906 12.89964844 -8.87695312 12.10742188 C-8.96907748 7.81442715 -8.83242406 6.14107872 -6.1328125 2.61328125 C-3.4375 0.625 -3.4375 0.625 0 0 Z " fill="#5ABB4E" transform="translate(122.4375,26.375)"/>
<path d="M0 0 C2.06183633 -0.08150744 4.12461349 -0.1394194 6.1875 -0.1875 C7.33605469 -0.22230469 8.48460938 -0.25710937 9.66796875 -0.29296875 C13.34012857 0.02990579 15.15208975 0.68314431 18 3 C18.8125 5.1875 18.8125 5.1875 19 7 C17.37829621 8.00533667 15.75252763 9.00411907 14.125 10 C13.22007813 10.556875 12.31515625 11.11375 11.3828125 11.6875 C9 13 9 13 7 13 C7 13.66 7 14.32 7 15 C11.95514502 14.12527407 11.95514502 14.12527407 15.4375 10.875 C15.623125 10.25625 15.80875 9.6375 16 9 C17.32 9 18.64 9 20 9 C19.74919159 12.67852334 19.38558753 14.55599012 16.9375 17.375 C13.12625213 19.48334989 10.2583576 19.94439382 6 19 C3 17.1875 3 17.1875 1 14 C0.71442253 11.12322699 0.74800832 8.40804376 0.921875 5.5234375 C1.14936997 2.8723878 1.14936997 2.8723878 0 0 Z " fill="#5BBB4F" transform="translate(66,30)"/>
<path d="M0 0 C2.08304538 -0.05418326 4.16649768 -0.09287551 6.25 -0.125 C7.99023438 -0.15980469 7.99023438 -0.15980469 9.765625 -0.1953125 C12.88841138 -0.00673844 14.49804771 0.17518158 17 2 C18.25 4.125 18.25 4.125 19 6 C17.3790787 7.17232685 15.75313167 8.3377077 14.125 9.5 C13.22007813 10.1496875 12.31515625 10.799375 11.3828125 11.46875 C9 13 9 13 7 13 C7 13.66 7 14.32 7 15 C11.95514502 14.12527407 11.95514502 14.12527407 15.4375 10.875 C15.623125 10.25625 15.80875 9.6375 16 9 C17.32 9 18.64 9 20 9 C18.67040951 15.40620872 18.67040951 15.40620872 15.8125 17.9375 C12.24626206 19.28474544 9.78723789 19.47340474 6 19 C3.125 17.5625 3.125 17.5625 1 15 C-0.10439467 10.7511483 -0.39327739 7.17983217 1 3 C0.67 2.01 0.34 1.02 0 0 Z " fill="#5DBC51" transform="translate(92,30)"/>
<path d="M0 0 C3.46145669 0.86536417 4.94931405 2.62635769 6.9375 5.484375 C7.6821324 9.45574781 7.31016878 10.92537183 5.0625 14.296875 C2.44075318 16.99573202 1.70185388 17.45252692 -2.0625 17.609375 C-5.0625 17.484375 -5.0625 17.484375 -7.0625 16.484375 C-7.165625 17.12375 -7.26875 17.763125 -7.375 18.421875 C-7.601875 19.1025 -7.82875 19.783125 -8.0625 20.484375 C-9.0525 20.814375 -10.0425 21.144375 -11.0625 21.484375 C-11.19809675 18.92008985 -11.29683188 16.36302284 -11.375 13.796875 C-11.41689453 13.07564453 -11.45878906 12.35441406 -11.50195312 11.61132812 C-11.59660868 7.46541462 -11.39822381 5.9252653 -8.79296875 2.50390625 C-5.4726608 0.04811339 -3.97753682 -0.27119569 0 0 Z " fill="#F6872B" transform="translate(217.0625,27.515625)"/>
<path d="M0 0 C0.66 0 1.32 0 2 0 C2 1.65 2 3.3 2 5 C2.66 4.67 3.32 4.34 4 4 C7.43912834 3.6261817 9.28923927 3.49212915 12.1484375 5.53515625 C14.61602971 8.82007331 14.66761809 11.78817929 14.75 15.75 C14.77964844 16.44738281 14.80929688 17.14476563 14.83984375 17.86328125 C14.91018458 19.57490813 14.95739946 21.28745815 15 23 C13.68 23 12.36 23 11 23 C10.93941406 22.07316406 10.87882813 21.14632812 10.81640625 20.19140625 C10.73261719 18.99386719 10.64882812 17.79632813 10.5625 16.5625 C10.48128906 15.36753906 10.40007812 14.17257813 10.31640625 12.94140625 C10.32343886 10.11429756 10.32343886 10.11429756 9 9 C6.5 8.83333333 6.5 8.83333333 4 9 C2.12175109 10.87824891 2.60897603 14.03935276 2.4375 16.5625 C2.31181641 18.35880859 2.31181641 18.35880859 2.18359375 20.19140625 C2.12300781 21.11824219 2.06242188 22.04507813 2 23 C0.68 23 -0.64 23 -2 23 C-2.05789006 19.54173658 -2.09355821 16.08359707 -2.125 12.625 C-2.14175781 11.64015625 -2.15851563 10.6553125 -2.17578125 9.640625 C-2.18222656 8.69960938 -2.18867188 7.75859375 -2.1953125 6.7890625 C-2.20578613 5.91975098 -2.21625977 5.05043945 -2.22705078 4.15478516 C-2 2 -2 2 0 0 Z " fill="#5ABB4E" transform="translate(136,26)"/>
<path d="M0 0 C0.66 -0.02191406 1.32 -0.04382813 2 -0.06640625 C5.23282516 0.95016572 6.27550484 2.70868942 8 5.5625 C8.390625 9.11328125 8.390625 9.11328125 8.25 12.875 C8.21390625 14.12925781 8.1778125 15.38351563 8.140625 16.67578125 C8.07101563 18.10470703 8.07101563 18.10470703 8 19.5625 C6.68 19.5625 5.36 19.5625 4 19.5625 C3.67 15.2725 3.34 10.9825 3 6.5625 C1.35 6.2325 -0.3 5.9025 -2 5.5625 C-3.58272601 7.14522601 -3.34735747 8.94284003 -3.5625 11.125 C-3.64628906 11.95128906 -3.73007813 12.77757812 -3.81640625 13.62890625 C-3.87699219 14.26699219 -3.93757812 14.90507813 -4 15.5625 C-2.68 15.8925 -1.36 16.2225 0 16.5625 C0 17.5525 0 18.5425 0 19.5625 C-2.64 19.5625 -5.28 19.5625 -8 19.5625 C-8.10826289 17.1446288 -8.18739789 14.73162444 -8.25 12.3125 C-8.28351563 11.63058594 -8.31703125 10.94867188 -8.3515625 10.24609375 C-8.41795714 6.82676996 -8.25750744 4.91970612 -6.234375 2.11328125 C-3.90105378 0.49382579 -2.80305648 -0.00547472 0 0 Z " fill="#61BE56" transform="translate(181,29.4375)"/>
<path d="M0 0 C3.6875 0.875 3.6875 0.875 7 2 C6.34 3.32 5.68 4.64 5 6 C5.639375 6.226875 6.27875 6.45375 6.9375 6.6875 C9 8 9 8 10 10.375 C10 13 10 13 8.5 15.3125 C5.06875397 17.62859107 3.05797526 17.6521746 -1 17 C-3.98106539 14.40112248 -4.89388856 12.86657677 -5.375 8.9375 C-5.00950778 6.0744776 -4.60997354 4.37259259 -3 2 C-2.01 1.34 -1.02 0.68 0 0 Z " fill="#53AC49" transform="translate(35,52)"/>
<path d="M0 0 C1.60332791 -0.08121924 3.20784026 -0.13929134 4.8125 -0.1875 C6.15248047 -0.23970703 6.15248047 -0.23970703 7.51953125 -0.29296875 C10 0 10 0 11.82421875 1.38671875 C13 3 13 3 13 5 C10.36 4.67 7.72 4.34 5 4 C6.82564274 6.01781565 8.20362698 7.09944573 10.6875 8.3125 C13 10 13 10 13.5625 13 C13 16 13 16 11.4375 17.9375 C8.03339271 19.42134164 5.56538192 18.75421541 2 18 C1.34 16.35 0.68 14.7 0 13 C3.04386724 12.91773332 5.07175348 13.02391783 8 14 C8 13.34 8 12.68 8 12 C7.030625 11.525625 6.06125 11.05125 5.0625 10.5625 C2 9 2 9 1 8 C0.54540142 5.34536879 0.29756762 2.67810862 0 0 Z " fill="#F68627" transform="translate(246,28)"/>
<path d="M0 0 C1.60332791 -0.08121924 3.20784026 -0.13929134 4.8125 -0.1875 C6.15248047 -0.23970703 6.15248047 -0.23970703 7.51953125 -0.29296875 C10 0 10 0 11.82421875 1.38671875 C13 3 13 3 13 5 C10.36 4.67 7.72 4.34 5 4 C6.78229225 5.96990196 8.26708834 7.14626266 10.625 8.4375 C13 10 13 10 14.125 11.875 C14 14 14 14 11.875 16.75 C9 19 9 19 6.4375 19.625 C2.99484699 18.74226846 1.91059849 16.90127919 0 14 C0 13.67 0 13.34 0 13 C3.04386724 12.91773332 5.07175348 13.02391783 8 14 C8 13.34 8 12.68 8 12 C7.05125 11.690625 6.1025 11.38125 5.125 11.0625 C1.60238644 8.73757505 1.46162802 8.22496633 0.625 4.3125 C0.39177118 2.87882872 0.17532514 1.4418981 0 0 Z " fill="#F68629" transform="translate(261,28)"/>
<path d="M0 0 C0.99 0 1.98 0 3 0 C3 1.32 3 2.64 3 4 C3.61875 3.505 4.2375 3.01 4.875 2.5 C7 1 7 1 9 1 C8.67 2.65 8.34 4.3 8 6 C7.34 6 6.68 6 6 6 C6 6.66 6 7.32 6 8 C10.95514502 7.12527407 10.95514502 7.12527407 14.4375 3.875 C14.623125 3.25625 14.80875 2.6375 15 2 C16.32 2 17.64 2 19 2 C18.74919159 5.67852334 18.38558753 7.55599012 15.9375 10.375 C12.14535209 12.47278395 9.23955388 12.97441359 5 12 C2 9.9375 2 9.9375 0 7 C-0.3125 3.1875 -0.3125 3.1875 0 0 Z " fill="#60BD55" transform="translate(67,37)"/>
<path d="M0 0 C2.08304538 -0.05418326 4.16649768 -0.09287551 6.25 -0.125 C7.99023438 -0.15980469 7.99023438 -0.15980469 9.765625 -0.1953125 C12.85339306 -0.00885308 14.47275123 0.28337819 17 2 C18.25 4.125 18.25 4.125 19 6 C17.92892883 6.86949317 16.84254056 7.72014205 15.75 8.5625 C15.14671875 9.03816406 14.5434375 9.51382813 13.921875 10.00390625 C12 11 12 11 9.765625 10.65234375 C9.18296875 10.43707031 8.6003125 10.22179688 8 10 C8.33 9.01 8.66 8.02 9 7 C11.0625 6.3125 11.0625 6.3125 13 6 C13 5.34 13 4.68 13 4 C6.45016294 5.49301718 6.45016294 5.49301718 1 9 C1.020625 8.071875 1.04125 7.14375 1.0625 6.1875 C1.15769604 2.97713989 1.15769604 2.97713989 0 0 Z " fill="#58BA4C" transform="translate(92,30)"/>
<path d="M0 0 C1.32 0 2.64 0 4 0 C4 1.32 4 2.64 4 4 C5.65 4 7.3 4 9 4 C8.34 5.32 7.68 6.64 7 8 C6.01 8 5.02 8 4 8 C4 12.95 4 17.9 4 23 C2.68 23 1.36 23 0 23 C0 15.41 0 7.82 0 0 Z " fill="#61BE56" transform="translate(190,26)"/>
<path d="M0 0 C3.0625 0.3125 3.0625 0.3125 4.9375 1.5 C6.46909584 3.96757108 6.49072025 5.45769831 6.0625 8.3125 C4.9375 10.125 4.9375 10.125 3.0625 11.3125 C0 11.625 0 11.625 -2.9375 11.3125 C-4.9375 9.3125 -4.9375 9.3125 -5.1875 5.8125 C-4.87458101 1.43163414 -4.40975115 0.46912246 0 0 Z " fill="#F8FCF8" transform="translate(160.9375,33.6875)"/>
<path d="M0 0 C1.7325 0.1546875 1.7325 0.1546875 3.5 0.3125 C5.5 3.3125 5.5 3.3125 5.25 5.875 C4.5 8.3125 4.5 8.3125 2.5 10.3125 C-0.5 10.5625 -0.5 10.5625 -3.5 10.3125 C-5.5 8.3125 -5.5 8.3125 -5.75 5.3125 C-5.37833659 0.85253908 -4.40663794 0.39344982 0 0 Z " fill="#FEFAF7" transform="translate(234.5,31.6875)"/>
<path d="M0 0 C3 0.25 3 0.25 5 2.25 C5.36487512 5.09602594 5.40199375 6.6364306 3.8125 9.0625 C1.35092224 10.67525784 -0.11065736 10.6834014 -3 10.25 C-4.875 9.0625 -4.875 9.0625 -6 7.25 C-5.66963219 2.73497322 -4.81520347 0.40126696 0 0 Z " fill="#F7FCF7" transform="translate(123,30.75)"/>
<path d="M0 0 C0.66 0 1.32 0 2 0 C2 7.59 2 15.18 2 23 C0.68 23 -0.64 23 -2 23 C-2.05789006 19.54173658 -2.09355821 16.08359707 -2.125 12.625 C-2.14175781 11.64015625 -2.15851563 10.6553125 -2.17578125 9.640625 C-2.18222656 8.69960938 -2.18867187 7.75859375 -2.1953125 6.7890625 C-2.20578613 5.91975098 -2.21625977 5.05043945 -2.22705078 4.15478516 C-2 2 -2 2 0 0 Z " fill="#5CBB50" transform="translate(89,26)"/>
<path d="M0 0 C2.4375 0.8125 2.4375 0.8125 4.4375 2.8125 C4.6875 5.3125 4.6875 5.3125 4.4375 7.8125 C2.4375 9.8125 2.4375 9.8125 -0.5625 10.0625 C-3.5625 9.8125 -3.5625 9.8125 -5.5625 7.8125 C-5.93046448 4.94237704 -5.93759409 3.40475382 -4.375 0.9375 C-2.5625 -0.1875 -2.5625 -0.1875 0 0 Z " fill="#FEFAF7" transform="translate(215.5625,31.1875)"/>
<path d="M0 0 C0.84648974 2.53946923 1.02071669 3.90562398 0.4375 6.5625 C-0.33510992 9.24805134 -0.33510992 9.24805134 2 12 C1.34 12.66 0.68 13.32 0 14 C-0.71408334 15.98356483 -1.38617742 17.98315437 -2 20 C-2.66 20 -3.32 20 -4 20 C-4.10787818 17.22813012 -4.18723327 14.46044463 -4.25 11.6875 C-4.28351563 10.90181641 -4.31703125 10.11613281 -4.3515625 9.30664062 C-4.38855392 7.13339453 -4.38367634 5.14030099 -4 3 C-1.984375 0.95703125 -1.984375 0.95703125 0 0 Z " fill="#55B949" transform="translate(118,29)"/>
<path d="M0 0 C2.00720923 0.28674418 4.0085944 0.61866701 6 1 C6.1953125 7.0546875 6.1953125 7.0546875 6 9 C5.34 9.66 4.68 10.32 4 11 C1.375 10.625 1.375 10.625 -1 10 C0.32 9.67 1.64 9.34 3 9 C1.35 8.01 -0.3 7.02 -2 6 C-1.125 1.125 -1.125 1.125 0 0 Z " fill="#2B2828" transform="translate(190,59)"/>
<path d="M0 0 C0.8723412 2.99480917 1.10829766 5.63575911 1.0625 8.75 C1.05347656 9.54921875 1.04445312 10.3484375 1.03515625 11.171875 C1.01775391 12.07679687 1.01775391 12.07679687 1 13 C2.65 13.33 4.3 13.66 6 14 C6 14.99 6 15.98 6 17 C3.36 17 0.72 17 -2 17 C-2.05383848 14.54137599 -2.09359038 12.0839245 -2.125 9.625 C-2.14175781 8.92632812 -2.15851563 8.22765625 -2.17578125 7.5078125 C-2.19344267 5.67102514 -2.10303261 3.83398037 -2 2 C-1.34 1.34 -0.68 0.68 0 0 Z " fill="#51B745" transform="translate(175,32)"/>
<path d="M0 0 C0.99 0 1.98 0 3 0 C3 1.32 3 2.64 3 4 C3.61875 3.505 4.2375 3.01 4.875 2.5 C7 1 7 1 9 1 C8.67 2.65 8.34 4.3 8 6 C7.34 6 6.68 6 6 6 C6 6.66 6 7.32 6 8 C6.66 8.33 7.32 8.66 8 9 C6.35 9.66 4.7 10.32 3 11 C0.39665076 8.28817788 0.00543309 7.10866187 -0.1875 3.25 C-0.125625 2.1775 -0.06375 1.105 0 0 Z " fill="#56B94A" transform="translate(67,37)"/>
<path d="M0 0 C0.66 0 1.32 0 2 0 C2 3.3 2 6.6 2 10 C-0.875 10.125 -0.875 10.125 -4 10 C-4.66 9.34 -5.32 8.68 -6 8 C-5.625 5.375 -5.625 5.375 -5 3 C-3.35 2.67 -1.7 2.34 0 2 C0 1.34 0 0.68 0 0 Z " fill="#333030" transform="translate(141,57)"/>
<path d="M0 0 C3.3 0 6.6 0 10 0 C10 0.99 10 1.98 10 3 C9.21625 3.45375 8.4325 3.9075 7.625 4.375 C4.50021524 6.30939056 4.23281515 7.65378745 3 11 C2.01 11.33 1.02 11.66 0 12 C-0.07427838 8.65747276 -0.06546953 6.1964086 1 3 C0.67 2.01 0.34 1.02 0 0 Z " fill="#51B745" transform="translate(152,30)"/>
<path d="M0 0 C0.33 0 0.66 0 1 0 C1 6.27 1 12.54 1 19 C0.67 19 0.34 19 0 19 C-0.74926071 15.33694766 -1.2380014 12.57644848 0 9 C-1.32 9 -2.64 9 -4 9 C-4.12375 9.61875 -4.2475 10.2375 -4.375 10.875 C-5 13 -5 13 -7 15 C-10.125 15.125 -10.125 15.125 -13 15 C-13 14.34 -13 13.68 -13 13 C-10.8828125 11.4921875 -10.8828125 11.4921875 -8.125 9.875 C-7.22007813 9.33617187 -6.31515625 8.79734375 -5.3828125 8.2421875 C-3 7 -3 7 -1 7 C-0.67 4.69 -0.34 2.38 0 0 Z " fill="#E9F6E7" transform="translate(86,30)"/>
<path d="M0 0 C0.94875 0.04125 1.8975 0.0825 2.875 0.125 C2.875 2.765 2.875 5.405 2.875 8.125 C0.54205225 8.16741723 -1.79202567 8.16592937 -4.125 8.125 C-5.125 7.125 -5.125 7.125 -5.3125 4.6875 C-5.02108357 0.70480882 -3.90175738 0.1560703 0 0 Z " fill="#3C393A" transform="translate(150.125,58.875)"/>
<path d="M0 0 C3.125 0.375 3.125 0.375 6 1 C6 3.31 6 5.62 6 8 C3.66705225 8.04241723 1.33297433 8.04092937 -1 8 C-2 7 -2 7 -2.1875 4.5625 C-2 2 -2 2 0 0 Z " fill="#322F2F" transform="translate(248,59)"/>
<path d="M0 0 C1.98 0 3.96 0 6 0 C6.70074844 3.153368 7 5.72724974 7 9 C6.01 9 5.02 9 4 9 C3.67 8.67 3.34 8.34 3 8 C2.67 8.66 2.34 9.32 2 10 C1.34 10 0.68 10 0 10 C0 6.7 0 3.4 0 0 Z " fill="#2C2929" transform="translate(211,57)"/>
<path d="M0 0 C1.32 0.33 2.64 0.66 4 1 C4 2.32 4 3.64 4 5 C4.66 4.67 5.32 4.34 6 4 C6 5.98 6 7.96 6 10 C3.69 10 1.38 10 -1 10 C-2.15837626 5.94568308 -1.83691257 3.78187881 0 0 Z " fill="#4A4748" transform="translate(160,57)"/>
<path d="M0 0 C0.66 0.33 1.32 0.66 2 1 C2 5.62 2 10.24 2 15 C0.68 15 -0.64 15 -2 15 C-2 10.38 -2 5.76 -2 1 C-1.34 0.67 -0.68 0.34 0 0 Z " fill="#5CBC50" transform="translate(187,34)"/>
<path d="M0 0 C2.00720923 0.28674418 4.0085944 0.61866701 6 1 C6 3.31 6 5.62 6 8 C3.125 8.125 3.125 8.125 0 8 C-0.66 7.34 -1.32 6.68 -2 6 C-1.44444444 1.44444444 -1.44444444 1.44444444 0 0 Z " fill="#2B2829" transform="translate(199,59)"/>
<path d="M0 0 C2.625 0.375 2.625 0.375 5 1 C5.625 3.375 5.625 3.375 6 6 C5.34 6.66 4.68 7.32 4 8 C1.375 7.625 1.375 7.625 -1 7 C-1.625 4.625 -1.625 4.625 -2 2 C-1.34 1.34 -0.68 0.68 0 0 Z " fill="#2D292A" transform="translate(181,59)"/>
<path d="M0 0 C0.99 0.66 1.98 1.32 3 2 C2.25 6.75 2.25 6.75 0 9 C-2.5 8.875 -2.5 8.875 -5 8 C-6.3125 5.9375 -6.3125 5.9375 -7 4 C-5.35 4 -3.7 4 -2 4 C-2 3.01 -2 2.02 -2 1 C-1.34 0.67 -0.68 0.34 0 0 Z " fill="#272224" transform="translate(40,59)"/>
<path d="M0 0 C7.1394958 -0.48403361 7.1394958 -0.48403361 11 1.6875 C13 4 13 4 13.3125 6.75 C13.1578125 7.86375 13.1578125 7.86375 13 9 C12.01 9 11.02 9 10 9 C9.79375 8.38125 9.5875 7.7625 9.375 7.125 C7.45224112 4.15346355 5.33405473 3.86975341 2 3 C2 2.34 2 1.68 2 1 C1.34 0.67 0.68 0.34 0 0 Z " fill="#F5801E" transform="translate(230,28)"/>
<path d="M0 0 C2.875 -0.1875 2.875 -0.1875 6 0 C6.66 0.99 7.32 1.98 8 3 C8.33 2.01 8.66 1.02 9 0 C9.66 0 10.32 0 11 0 C10.34 2.31 9.68 4.62 9 7 C8.01 7 7.02 7 6 7 C5.67 5.35 5.34 3.7 5 2 C4.01 2 3.02 2 2 2 C2 3.98 2 5.96 2 8 C1.34 8 0.68 8 0 8 C0 5.36 0 2.72 0 0 Z " fill="#2E2B2C" transform="translate(114,59)"/>
<path d="M0 0 C1.9375 0.6875 1.9375 0.6875 4 2 C5 4.375 5 4.375 5 7 C3.5 9.3125 3.5 9.3125 1 11 C-2.5 11.5625 -2.5 11.5625 -6 11 C-8.4375 8.625 -8.4375 8.625 -10 6 C-10 5.34 -10 4.68 -10 4 C-6.60085025 5.13304992 -5.94745549 6.12518475 -4 9 C-2.35 8.67 -0.7 8.34 1 8 C1.6878236 5.64632287 1.6878236 5.64632287 2 3 C1.34 2.01 0.68 1.02 0 0 Z " fill="#EAECEA" transform="translate(40,58)"/>
<path d="M0 0 C1.67542976 0.28604898 3.34385343 0.61781233 5 1 C5.33 2.32 5.66 3.64 6 5 C5.01 5.33 4.02 5.66 3 6 C3.66 6 4.32 6 5 6 C5 6.66 5 7.32 5 8 C2.625 8.125 2.625 8.125 0 8 C-0.66 7.34 -1.32 6.68 -2 6 C-1.44444444 1.44444444 -1.44444444 1.44444444 0 0 Z " fill="#454243" transform="translate(128,59)"/>
<path d="M0 0 C1.67542976 0.28604898 3.34385343 0.61781233 5 1 C5.33 2.32 5.66 3.64 6 5 C5.01 5.33 4.02 5.66 3 6 C3.66 6.33 4.32 6.66 5 7 C2.625 7.625 2.625 7.625 0 8 C-0.66 7.34 -1.32 6.68 -2 6 C-1.44444444 1.44444444 -1.44444444 1.44444444 0 0 Z " fill="#221E1F" transform="translate(221,59)"/>
<path d="M0 0 C2.625 0.375 2.625 0.375 5 1 C5 2.32 5 3.64 5 5 C4.01 5.495 4.01 5.495 3 6 C3.66 6.33 4.32 6.66 5 7 C4 8 4 8 1.5 8.125 C-1 8 -1 8 -2 7 C-2.1875 4.5625 -2.1875 4.5625 -2 2 C-1.34 1.34 -0.68 0.68 0 0 Z " fill="#484546" transform="translate(239,59)"/>
<path d="M0 0 C0.66 0 1.32 0 2 0 C5.125 6.625 5.125 6.625 4 10 C3.67 9.01 3.34 8.02 3 7 C1.02463255 7.34786708 1.02463255 7.34786708 -1 8 C-1.33 8.66 -1.66 9.32 -2 10 C-2.66 10 -3.32 10 -4 10 C-3.52449439 8.51965236 -3.04448784 7.04074979 -2.5625 5.5625 C-2.29566406 4.73878906 -2.02882813 3.91507813 -1.75390625 3.06640625 C-1 1 -1 1 0 0 Z " fill="#1D1B1B" transform="translate(91,57)"/>
<path d="M0 0 C3.63 0 7.26 0 11 0 C9.02 0.99 9.02 0.99 7 2 C7 2.66 7 3.32 7 4 C8.32 4.33 9.64 4.66 11 5 C10.05125 5.309375 9.1025 5.61875 8.125 5.9375 C5.13919592 6.87394742 5.13919592 6.87394742 3 8 C3 6.68 3 5.36 3 4 C2.01 3.67 1.02 3.34 0 3 C0 2.01 0 1.02 0 0 Z " fill="#F7994A" transform="translate(225,27)"/>
<path d="M0 0 C0.33 0.66 0.66 1.32 1 2 C2.98 2 4.96 2 7 2 C7 2.66 7 3.32 7 4 C6.34 4 5.68 4 5 4 C5 5.98 5 7.96 5 10 C4.34 10 3.68 10 3 10 C3 8.02 3 6.04 3 4 C2.34 4 1.68 4 1 4 C1 5.98 1 7.96 1 10 C0.67 10 0.34 10 0 10 C-1.125 2.25 -1.125 2.25 0 0 Z " fill="#484546" transform="translate(229,57)"/>
<path d="M0 0 C0.33 0 0.66 0 1 0 C1.36923077 5.41538462 1.36923077 5.41538462 -0.5 8.375 C-0.995 8.91125 -1.49 9.4475 -2 10 C-4.64 9.67 -7.28 9.34 -10 9 C-10 8.67 -10 8.34 -10 8 C-9.05125 7.7525 -8.1025 7.505 -7.125 7.25 C-3.91306809 6.3142923 -3.91306809 6.3142923 -2.625 3.875 C-2.41875 3.25625 -2.2125 2.6375 -2 2 C-2 2.66 -2 3.32 -2 4 C-1.34 4 -0.68 4 0 4 C0 2.68 0 1.36 0 0 Z " fill="#F6923D" transform="translate(223,33)"/>
<path d="M0 0 C0.99 0.99 1.98 1.98 3 3 C3.66 2.01 4.32 1.02 5 0 C5.66 0 6.32 0 7 0 C6.52269162 1.4589426 6.04308958 2.91713496 5.5625 4.375 C5.29566406 5.18710938 5.02882813 5.99921875 4.75390625 6.8359375 C4 9 4 9 3 11 C2.34 11 1.68 11 1 11 C1.020625 10.113125 1.04125 9.22625 1.0625 8.3125 C1.00713781 5.37830369 0.6694266 2.84506304 0 0 Z " fill="#3B3939" transform="translate(97,59)"/>
<path d="M0 0 C0.33 0.66 0.66 1.32 1 2 C-0.0625 4.625 -0.0625 4.625 -2 7 C-5.1875 7.3125 -5.1875 7.3125 -8 7 C-8 6.34 -8 5.68 -8 5 C-6.25 3.7109375 -6.25 3.7109375 -4 2.375 C-3.2575 1.92898437 -2.515 1.48296875 -1.75 1.0234375 C-1.1725 0.68570313 -0.595 0.34796875 0 0 Z " fill="#EFF8EE" transform="translate(107,38)"/>
<path d="M0 0 C0.94875 0.04125 1.8975 0.0825 2.875 0.125 C2.875 0.785 2.875 1.445 2.875 2.125 C-3.875 6.125 -3.875 6.125 -6.125 6.125 C-5.28810868 1.94054341 -4.61542241 0.1846169 0 0 Z " fill="#EDF7EC" transform="translate(102.125,33.875)"/>
<path d="M0 0 C3.96 0 7.92 0 12 0 C12 0.33 12 0.66 12 1 C8.7 1.33 5.4 1.66 2 2 C2.33 3.32 2.66 4.64 3 6 C2.0625 9.25 2.0625 9.25 1 12 C0.67 12 0.34 12 0 12 C0 8.04 0 4.08 0 0 Z " fill="#E0F2DE" transform="translate(91,29)"/>
<path d="M0 0 C0.33 0.99 0.66 1.98 1 3 C3.97 3.495 3.97 3.495 7 4 C7 4.99 7 5.98 7 7 C4.69 7 2.38 7 0 7 C0 4.69 0 2.38 0 0 Z " fill="#58BA4C" transform="translate(174,42)"/>
<path d="M0 0 C1.4540625 0.0309375 1.4540625 0.0309375 2.9375 0.0625 C2.9375 0.7225 2.9375 1.3825 2.9375 2.0625 C-2.47426471 6.0625 -2.47426471 6.0625 -5.0625 6.0625 C-3.98897059 0.08140756 -3.98897059 0.08140756 0 0 Z " fill="#ECF7EB" transform="translate(76.0625,33.9375)"/>
<path d="M0 0 C1.65 0 3.3 0 5 0 C5.33 1.65 5.66 3.3 6 5 C5.01 5.66 4.02 6.32 3 7 C3 6.34 3 5.68 3 5 C2.34 5 1.68 5 1 5 C0.67 3.35 0.34 1.7 0 0 Z " fill="#737172" transform="translate(212,57)"/>
<path d="M0 0 C1.32 0.99 2.64 1.98 4 3 C4.99 2.01 5.98 1.02 7 0 C6.01 3.3 5.02 6.6 4 10 C3.34 10 2.68 10 2 10 C1.34 6.7 0.68 3.4 0 0 Z " fill="#333132" transform="translate(172,57)"/>
<path d="M0 0 C3.71599191 -0.20086443 4.77208445 -0.1519437 8 2 C7.67 2.99 7.34 3.98 7 5 C4.625 4.75 4.625 4.75 2 4 C0.6875 1.9375 0.6875 1.9375 0 0 Z " fill="#F5801D" transform="translate(261,41)"/>
<path d="M0 0 C4.55384615 -0.36923077 4.55384615 -0.36923077 6.8125 1.5 C7.204375 1.995 7.59625 2.49 8 3 C7.67 3.66 7.34 4.32 7 5 C4 5 4 5 1.8125 3.0625 C0 1 0 1 0 0 Z " fill="#201A1D" transform="translate(39,55)"/>
<path d="M0 0 C3.6875 0.875 3.6875 0.875 7 2 C6.01 2.33 5.02 2.66 4 3 C3.67 3.99 3.34 4.98 3 6 C1.02 5.34 -0.96 4.68 -3 4 C-3 3.34 -3 2.68 -3 2 C-2.01 1.34 -1.02 0.68 0 0 Z " fill="#78C16F" transform="translate(35,52)"/>
<path d="M0 0 C0.66 0 1.32 0 2 0 C3.2380014 3.57644848 2.74926071 6.33694766 2 10 C1.34 10 0.68 10 0 10 C-1.125 2.25 -1.125 2.25 0 0 Z " fill="#4A4748" transform="translate(256,57)"/>
<path d="M0 0 C1.98 0 3.96 0 6 0 C4.02 0.99 4.02 0.99 2 2 C2 3.98 2 5.96 2 8 C1.34 8 0.68 8 0 8 C0 5.36 0 2.72 0 0 Z " fill="#545152" transform="translate(114,59)"/>
<path d="M0 0 C2.475 0.495 2.475 0.495 5 1 C5.33 2.32 5.66 3.64 6 5 C3.03 4.505 3.03 4.505 0 4 C0 2.68 0 1.36 0 0 Z " fill="#676566" transform="translate(221,59)"/>
<path d="M0 0 C2.3125 1.9375 2.3125 1.9375 4 4 C1.36 4.33 -1.28 4.66 -4 5 C-4.33 3.68 -4.66 2.36 -5 1 C-2.75 0.25 -2.75 0.25 0 0 Z " fill="#F6913C" transform="translate(237,41)"/>
<path d="M0 0 C1.98 0.495 1.98 0.495 4 1 C3.67 2.32 3.34 3.64 3 5 C1.68 4.67 0.36 4.34 -1 4 C-0.67 2.68 -0.34 1.36 0 0 Z " fill="#DCDBDC" transform="translate(200,61)"/>
<path d="M0 0 C0.99 0.99 1.98 1.98 3 3 C2.67 3.66 2.34 4.32 2 5 C1.77532169 6.53668865 1.59203195 8.07968054 1.4375 9.625 C1.35371094 10.44226562 1.26992187 11.25953125 1.18359375 12.1015625 C1.12300781 12.72804688 1.06242188 13.35453125 1 14 C0.67 14 0.34 14 0 14 C-0.19532961 12.2300132 -0.38098882 10.45895721 -0.5625 8.6875 C-0.66691406 7.70136719 -0.77132812 6.71523438 -0.87890625 5.69921875 C-1 3 -1 3 0 0 Z " fill="#7EC974" transform="translate(176,31)"/>
<path d="M0 0 C1.9375 0.8125 1.9375 0.8125 4 2 C4.33 2.99 4.66 3.98 5 5 C2.69 4.67 0.38 4.34 -2 4 C-1.34 3.67 -0.68 3.34 0 3 C0 2.01 0 1.02 0 0 Z " fill="#F68A2E" transform="translate(254,28)"/>
<path d="M0 0 C1.9375 0.6875 1.9375 0.6875 4 2 C4.9375 4.4375 4.9375 4.4375 5 7 C3.5625 8.8125 3.5625 8.8125 2 10 C2 9.01 2 8.02 2 7 C1.56215842 4.43549931 1.16551796 2.33103593 0 0 Z " fill="#BAB9BA" transform="translate(40,58)"/>
<path d="M0 0 C0.66 0 1.32 0 2 0 C3 3 3 3 2 6 C0.68 5.67 -0.64 5.34 -2 5 C-1.34 3.35 -0.68 1.7 0 0 Z " fill="#535051" transform="translate(91,57)"/>
<path d="M0 0 C2 1.375 2 1.375 4 3 C4 3.66 4 4.32 4 5 C1.69 4.67 -0.62 4.34 -3 4 C-2.34 3.67 -1.68 3.34 -1 3 C-0.67 2.01 -0.34 1.02 0 0 Z " fill="#F6892D" transform="translate(270,28)"/>
<path d="M0 0 C0.66 0.66 1.32 1.32 2 2 C1.625 5.625 1.625 5.625 1 9 C0.01 8.67 -0.98 8.34 -2 8 C-1.47731534 5.23723823 -0.89130413 2.6739124 0 0 Z " fill="#EBEBEB" transform="translate(218,59)"/>
<path d="M0 0 C1.98 0.495 1.98 0.495 4 1 C3.34 2.32 2.68 3.64 2 5 C1.01 4.67 0.02 4.34 -1 4 C-0.67 2.68 -0.34 1.36 0 0 Z " fill="#E5E5E5" transform="translate(138,61)"/>
<path d="M0 0 C1.98 0.495 1.98 0.495 4 1 C4 1.99 4 2.98 4 4 C2.35 4 0.7 4 -1 4 C-0.67 2.68 -0.34 1.36 0 0 Z " fill="#E8E8E8" transform="translate(147,61)"/>
<path d="M0 0 C1.32 0 2.64 0 4 0 C3.67 1.65 3.34 3.3 3 5 C2.01 4.67 1.02 4.34 0 4 C0 2.68 0 1.36 0 0 Z " fill="#E8E8E8" transform="translate(248,61)"/>
<path d="M0 0 C1.32 0 2.64 0 4 0 C3.67 1.65 3.34 3.3 3 5 C2.01 4.67 1.02 4.34 0 4 C0 2.68 0 1.36 0 0 Z " fill="#E6E6E6" transform="translate(190,61)"/>
<path d="M0 0 C1.32 0 2.64 0 4 0 C3.67 1.65 3.34 3.3 3 5 C2.01 4.67 1.02 4.34 0 4 C0 2.68 0 1.36 0 0 Z " fill="#E6E5E6" transform="translate(181,61)"/>
<path d="M0 0 C1.74627478 2.61941217 2.38722388 4.03824877 3 7 C2.34 7 1.68 7 1 7 C0.67 7.66 0.34 8.32 0 9 C-1.125 2.25 -1.125 2.25 0 0 Z " fill="#E3E3E3" transform="translate(96,59)"/>
<path d="M0 0 C-0.33 0.99 -0.66 1.98 -1 3 C-3.64 2.34 -6.28 1.68 -9 1 C-9 0.67 -9 0.34 -9 0 C-5.62182575 -0.84454356 -3.32534757 -1.10844919 0 0 Z " fill="#FDF0E4" transform="translate(270,40)"/>
<path d="M0 0 C-0.33 0.99 -0.66 1.98 -1 3 C-3.64 2.34 -6.28 1.68 -9 1 C-9 0.67 -9 0.34 -9 0 C-5.62182575 -0.84454356 -3.32534757 -1.10844919 0 0 Z " fill="#FDEFE3" transform="translate(255,40)"/>
<path d="M0 0 C1.80411967 2.75924185 2.0127245 3.88972103 1.625 7.25 C1.41875 8.1575 1.2125 9.065 1 10 C-0.625 8.375 -0.625 8.375 -2 6 C-1.1875 2.75 -1.1875 2.75 0 0 Z " fill="#DBEBD9" transform="translate(66,31)"/>
<path d="M0 0 C0 0.99 0 1.98 0 3 C0.99 3.33 1.98 3.66 3 4 C1.35 4.33 -0.3 4.66 -2 5 C-2.33 4.34 -2.66 3.68 -3 3 C-3.99 3 -4.98 3 -6 3 C-2.25 0 -2.25 0 0 0 Z " fill="#73C569" transform="translate(121,27)"/>
<path d="M0 0 C1.2065625 0.0309375 1.2065625 0.0309375 2.4375 0.0625 C1.7775 0.7225 1.1175 1.3825 0.4375 2.0625 C1.7575 2.7225 3.0775 3.3825 4.4375 4.0625 C1.5625 4.25 1.5625 4.25 -1.5625 4.0625 C-2.2225 3.0725 -2.8825 2.0825 -3.5625 1.0625 C-2.5625 0.0625 -2.5625 0.0625 0 0 Z " fill="#68C15E" transform="translate(121.5625,40.9375)"/>
<path d="M0 0 C2.64 0.33 5.28 0.66 8 1 C7.01 1.33 6.02 1.66 5 2 C5 2.66 5 3.32 5 4 C2.525 3.01 2.525 3.01 0 2 C0 1.34 0 0.68 0 0 Z " fill="#FEF1E6" transform="translate(266,32)"/>
<path d="M0 0 C2.64 0.33 5.28 0.66 8 1 C7.01 1.33 6.02 1.66 5 2 C5 2.66 5 3.32 5 4 C2.525 3.01 2.525 3.01 0 2 C0 1.34 0 0.68 0 0 Z " fill="#FEF2E8" transform="translate(251,32)"/>
<path d="M0 0 C0.66 0 1.32 0 2 0 C2.33 1.98 2.66 3.96 3 6 C1.68 6 0.36 6 -1 6 C-1.042721 4.33388095 -1.04063832 2.66617115 -1 1 C-0.67 0.67 -0.34 0.34 0 0 Z " fill="#5EBC52" transform="translate(136,26)"/>
</svg>
